nColumns=19
nRows=20
DataType=double
version=2
endheader
time	ground_force_1_vx	ground_force_1_vy	ground_force_1_vz	ground_force_1_px	ground_force_1_py	ground_force_1_pz	ground_moment_1_mx	ground_moment_1_my	ground_moment_1_mz	ground_force_2_vx	ground_force_2_vy	ground_force_2_vz	ground_force_2_px	ground_force_2_py	ground_force_2_pz	ground_moment_2_mx	ground_moment_2_my	ground_moment_2_mz
4.025	39.11430567278148	731.3460970347588	-30.13782791407434	0.2369418445618301	0.004683679140790892	0.2923417527203494	0.07161980269610155	8.552443566303426	0.03262478009865796	0	0	0	0.8952113342285156	0.002086591646075249	0.2021185622215271	0	0	0
4.026	39.86441621375302	731.2328473980471	-30.46599401254912	0.2372102910637008	0.004681760228273405	0.2922554779784063	0.07147780727610276	8.535487252958552	0.03256009729895611	0	0	0	0.8952113342285156	0.002086591646075249	0.2021185622215271	0	0	0
4.027	40.61454140141813	731.1195366604184	-30.79417570281316	0.2374787489589489	0.004679841249736281	0.2921691955318223	0.0713358036785285	8.51852996309252	0.03249541077414488	0	0	0	0.8952113342285156	0.002086591646075249	0.2021185622215271	0	0	0
4.028	41.36466710018169	731.0062869553618	-31.12235716025787	0.2377472030397156	0.004677922303046395	0.2920829131103942	0.07119380008095427	8.501572673226489	0.03243072424933363	0	0	0	0.8952113342285156	0.002086591646075249	0.2021185622215271	0	0	0
4.029	42.11479228784679	730.8929762177331	-31.45053885052192	0.2380156609850303	0.004676003294987197	0.2919966382929834	0.07105178830580459	8.484614406839302	0.03236603399941298	0	0	0	0.8952113342285156	0.002086591646075249	0.2021185622215271	0	0	0
4.03	42.86492859352222	730.7796655764561	-31.77877020587908	0.2382841378525518	0.004674084216258034	0.2919103404622736	0.07090994825973923	8.467676647396383	0.03230142197678983	0	0	0	0.8952113342285156	0.002086591646075249	0.2021185622215271	0	0	0
4.031	42.86095882439545	730.4732601653418	-31.99512696183187	0.2383711238645607	0.004673659194099476	0.2918308014436486	0.07165810645947832	8.557017591395997	0.0326422285111092	0	0	0	0.8952113342285156	0.002086591646075249	0.2021185622215271	0	0	0
4.032	42.85698956636713	730.1669157867997	-32.21148348496534	0.2384581099266364	0.004673234142418845	0.2917512700541969	0.07240627283679286	8.646359511916767	0.03298303877053799	0	0	0	0.8952113342285156	0.002086591646075249	0.2021185622215271	0	0	0
4.033	42.85301598275899	729.8605104075326	-32.42784021576222	0.2385450959386454	0.004672809120260286	0.2916717310355719	0.07315443103653198	8.735700455916382	0.03332384530485737	0	0	0	0.8952113342285156	0.002086591646075249	0.2021185622215271	0	0	0
4.034	42.84904669969731	729.5541660437517	-32.64420055348225	0.2386320819506543	0.004672384098101728	0.291592192016947	0.07390260559142196	8.825043352958305	0.03366465928939555	0	0	0	0.8952113342285156	0.002086591646075249	0.2021185622215271	0	0	0
4.035	42.84525696219625	729.2477586929862	-32.8604440541661	0.2387191175509212	0.004671958661929087	0.2915126526712952	0.07465039580026611	8.914340353505921	0.03400529819379172	0	0	0	0.8952113342285156	0.002086591646075249	0.2021185622215271	0	0	0
4.036	43.70599730982212	728.9871367432235	-32.54429597024737	0.2390305435110231	0.004669737578040731	0.2914112398435077	0.0736309301800421	8.792601367128805	0.03354090370475523	0	0	0	0.8952113342285156	0.002086591646075249	0.2021185622215271	0	0	0
4.037	44.56673763241462	728.7265148082219	-32.22815170091519	0.2393419732856065	0.004667516462305137	0.2913098269905642	0.07261146455981807	8.670862380751691	0.03307650921571874	0	0	0	0.8952113342285156	0.002086591646075249	0.2021185622215271	0	0	0
4.038	45.42747798004051	728.4658928584593	-31.91200361699644	0.2396534030101231	0.004665295376091617	0.2912084065084478	0.07159199893959406	8.549123394374575	0.03261211472668225	0	0	0	0.8952113342285156	0.002086591646075249	0.2021185622215271	0	0	0
4.039	46.28821832766638	728.2052709086968	-31.59585553307769	0.2399648328347732	0.004663074230833949	0.2911070012846775	0.07057253331937005	8.427384407997458	0.03214772023764575	0	0	0	0.8952113342285156	0.002086591646075249	0.2021185622215271	0	0	0
4.04	47.14874504973296	727.9447120849335	-31.27978591392623	0.2402761826554479	0.004660853695324113	0.2910056118475278	0.06955332120398477	8.305675693776166	0.03168344122700081	0	0	0	0.8952113342285156	0.002086591646075249	0.2021185622215271	0	0	0
4.041	46.93078809155484	727.7791962027072	-31.49418936575344	0.2403166432069567	0.004660857163037918	0.2909158814605699	0.07078795518927493	8.45310890479797	0.03224585079469169	0	0	0	0.8952113342285156	0.002086591646075249	0.2021185622215271	0	0	0
4.042	46.71278574553184	727.6137418090252	-31.70861135582317	0.2403570922649547	0.004660860755815508	0.2908261435199066	0.07202267095031951	8.600551881031327	0.03280829761347661	0	0	0	0.8952113342285156	0.002086591646075249	0.2021185622215271	0	0	0
4.043	46.49478670289174	727.4482263509238	-31.92303360386815	0.2403975414230862	0.004660864289548952	0.2907364208375897	0.07325738671136409	8.747994857264686	0.03337074443226154	0	0	0	0.8952113342285156	0.002086591646075249	0.2021185622215271	0	0	0
4.044	46.27678763521829	727.2827109075835	-32.13745966649969	0.2404379904810842	0.004660867882326543	0.2906466828969265	0.07449209429483322	8.89543685697689	0.03393318752593706	0	0	0	0.8952113342285156	0.002086591646075249	0.2021185622215271	0	0	0
